<svg width="48" height="48" viewBox="0 0 48 48" fill="none" xmlns="http://www.w3.org/2000/svg">
<path d="M36.26 24L38.78 21.48C39.66 20.6 40.78 20.12 42 20V18L30 6H10C7.78 6 6 7.78 6 10V38C6 39.0609 6.42143 40.0783 7.17157 40.8284C7.92172 41.5786 8.93913 42 10 42H22V38.26L22.26 38H10V10H24V24H36.26ZM28 9L39 20H28V9ZM38.26 27.66L42.34 31.74L30.08 44H26V39.92L38.26 27.66ZM45.7 28.38L43.74 30.34L39.66 26.26L41.62 24.3C42 23.9 42.66 23.9 43.06 24.3L45.7 26.94C46.1 27.34 46.1 28 45.7 28.38Z" fill="#0D99FF"/>
</svg>
