<svg width="48" height="48" viewBox="0 0 48 48" fill="none" xmlns="http://www.w3.org/2000/svg">
<path fill-rule="evenodd" clip-rule="evenodd" d="M31 40C31 40.7956 31.3161 41.5587 31.8787 42.1213C32.4413 42.6839 33.2044 43 34 43C34.7956 43 35.5587 42.6839 36.1213 42.1213C36.6839 41.5587 37 40.7956 37 40V37H40C40.7956 37 41.5587 36.6839 42.1213 36.1213C42.6839 35.5587 43 34.7956 43 34C43 33.2044 42.6839 32.4413 42.1213 31.8787C41.5587 31.3161 40.7956 31 40 31H37V17H40C40.7956 17 41.5587 16.6839 42.1213 16.1213C42.6839 15.5587 43 14.7956 43 14C43 13.2044 42.6839 12.4413 42.1213 11.8787C41.5587 11.3161 40.7956 11 40 11H37V8C37 7.20435 36.6839 6.44129 36.1213 5.87868C35.5587 5.31607 34.7956 5 34 5C33.2044 5 32.4413 5.31607 31.8787 5.87868C31.3161 6.44129 31 7.20435 31 8V11H17V8C17 7.60603 16.9224 7.21593 16.7716 6.85195C16.6209 6.48797 16.3999 6.15726 16.1213 5.87868C15.8427 5.6001 15.512 5.37913 15.1481 5.22836C14.7841 5.0776 14.394 5 14 5C13.606 5 13.2159 5.0776 12.8519 5.22836C12.488 5.37913 12.1573 5.6001 11.8787 5.87868C11.6001 6.15726 11.3791 6.48797 11.2284 6.85195C11.0776 7.21593 11 7.60603 11 8V11H8C7.60603 11 7.21593 11.0776 6.85195 11.2284C6.48797 11.3791 6.15726 11.6001 5.87868 11.8787C5.6001 12.1573 5.37913 12.488 5.22836 12.8519C5.0776 13.2159 5 13.606 5 14C5 14.394 5.0776 14.7841 5.22836 15.1481C5.37913 15.512 5.6001 15.8427 5.87868 16.1213C6.15726 16.3999 6.48797 16.6209 6.85195 16.7716C7.21593 16.9224 7.60603 17 8 17H11V31H8C7.20435 31 6.44129 31.3161 5.87868 31.8787C5.31607 32.4413 5 33.2044 5 34C5 34.7956 5.31607 35.5587 5.87868 36.1213C6.44129 36.6839 7.20435 37 8 37H11V40C11 40.7956 11.3161 41.5587 11.8787 42.1213C12.4413 42.6839 13.2044 43 14 43C14.7956 43 15.5587 42.6839 16.1213 42.1213C16.6839 41.5587 17 40.7956 17 40V37H31V40ZM17 31H31V17H17V31Z" fill="#0D99FF"/>
</svg>
