<svg width="48" height="48" viewBox="0 0 48 48" fill="none" xmlns="http://www.w3.org/2000/svg">
<path fill-rule="evenodd" clip-rule="evenodd" d="M6.344 6.34393C4 8.68593 4 12.4579 4 19.9999V27.9999C4 35.5419 4 39.3139 6.344 41.6559C8.688 43.9979 12.458 43.9999 20 43.9999H28C35.542 43.9999 39.314 43.9999 41.656 41.6559C43.998 39.3119 44 35.5419 44 27.9999V19.9999C44 14.3199 44 10.7799 43 8.37793V33.9999C42.0492 34.0001 41.1076 33.8129 40.2291 33.4492C39.3506 33.0854 38.5524 32.5522 37.88 31.8799L36.376 30.3759C34.932 28.9319 34.212 28.2119 33.394 27.9079C32.4947 27.5736 31.5053 27.5736 30.606 27.9079C29.788 28.2119 29.066 28.9319 27.626 30.3759L27.398 30.6019C26.228 31.7719 25.642 32.3579 25.02 32.4659C24.5369 32.5511 24.0394 32.4557 23.622 32.1979C23.086 31.8659 22.76 31.1039 22.106 29.5819L22 29.3339C20.5 25.8339 19.752 24.0859 18.444 23.4299C17.7853 23.0997 17.0482 22.9578 16.314 23.0199C14.856 23.1439 13.512 24.4899 10.82 27.1799L7 30.9999V5.77393C6.768 5.94593 6.54933 6.13593 6.344 6.34393Z" fill="#0D99FF"/>
<path d="M6 20C6 16.172 6.004 13.502 6.276 11.488C6.538 9.532 7.02 8.496 7.756 7.758C8.496 7.018 9.532 6.538 11.488 6.276C13.502 6.004 16.172 6 20 6H28C31.828 6 34.498 6.004 36.512 6.276C38.468 6.538 39.504 7.02 40.242 7.756C40.982 8.496 41.462 9.532 41.726 11.488C41.996 13.502 42 16.172 42 20V28C42 31.828 41.996 34.498 41.726 36.512C41.462 38.468 40.98 39.504 40.242 40.242C39.504 40.982 38.468 41.462 36.512 41.726C34.498 41.996 31.828 42 28 42H20C16.172 42 13.502 41.996 11.488 41.726C9.532 41.462 8.496 40.98 7.758 40.242C7.018 39.504 6.538 38.468 6.276 36.512C6.004 34.498 6 31.828 6 28V20Z" stroke="#0D99FF" stroke-width="4"/>
<path d="M30 22C32.2091 22 34 20.2091 34 18C34 15.7909 32.2091 14 30 14C27.7909 14 26 15.7909 26 18C26 20.2091 27.7909 22 30 22Z" fill="#0D99FF"/>
</svg>
