<svg width="48" height="48" viewBox="0 0 48 48" fill="none" xmlns="http://www.w3.org/2000/svg">
<g clip-path="url(#clip0_88_8)">
<path d="M23.1721 10.5315C26.8366 10.5315 30.2896 12.156 32.8201 14.6955V14.703C32.8201 13.4835 33.6406 12.561 34.7746 12.561H35.0626C36.8521 12.561 37.2106 14.2485 37.2106 14.781L37.2181 33.7335C37.0936 34.9755 38.5006 35.6175 39.2821 34.8195C42.3196 31.695 45.9601 18.741 37.3906 11.241C29.3986 4.24051 18.6721 5.39701 12.9691 9.32701C6.90757 13.515 3.03307 22.7655 6.79657 31.4595C10.9066 40.938 22.6561 43.7655 29.6491 40.9455C33.1891 39.516 34.8211 44.295 31.1416 45.8595C25.5961 48.225 10.1416 47.9835 2.92357 35.484C-1.95293 27.0405 -1.69493 12.1875 11.2441 4.49251C21.1336 -1.39799 34.1821 0.23401 42.0481 8.44651C50.2681 17.04 49.7926 33.1185 41.7676 39.369C38.1331 42.2115 32.7361 39.447 32.7751 35.3055L32.7346 33.9555C30.2041 36.462 26.8366 37.932 23.1721 37.932C15.9226 37.932 9.54007 31.548 9.54007 24.306C9.54007 16.986 15.9226 10.5345 23.1721 10.5345V10.5315ZM32.2906 23.7825C32.0161 18.477 28.0786 15.282 23.3206 15.282H23.1406C17.6566 15.282 14.6101 19.602 14.6101 24.4995C14.6101 29.991 18.2896 33.459 23.1181 33.459C28.5076 33.459 32.0461 29.5155 32.3041 24.8505L32.2906 23.7825Z" fill="#0D99FF"/>
</g>
<defs>
<clipPath id="clip0_88_8">
<rect width="48" height="48" fill="white"/>
</clipPath>
</defs>
</svg>
