<svg width="48" height="48" viewBox="0 0 48 48" fill="none" xmlns="http://www.w3.org/2000/svg">
<g clip-path="url(#clip0_12_111)">
<path d="M46.2857 36.0001V42.8572C46.2857 43.7665 45.9245 44.6386 45.2815 45.2816C44.6385 45.9246 43.7665 46.2858 42.8572 46.2858H36M36 1.71436H42.8572C43.7665 1.71436 44.6385 2.07558 45.2815 2.71856C45.9245 3.36154 46.2857 4.23361 46.2857 5.14293V12.0001M1.71429 12.0001V5.14293C1.71429 4.23361 2.07552 3.36154 2.7185 2.71856C3.36148 2.07558 4.23355 1.71436 5.14287 1.71436H12M12 46.2858H5.14287C4.23355 46.2858 3.36148 45.9246 2.7185 45.2816C2.07552 44.6386 1.71429 43.7665 1.71429 42.8572V36.0001M24 22.2858C25.8186 22.2858 27.5628 21.5633 28.8487 20.2774C30.1347 18.9914 30.8572 17.2473 30.8572 15.4286C30.8572 13.61 30.1347 11.8659 28.8487 10.5799C27.5628 9.29395 25.8186 8.5715 24 8.5715C22.1814 8.5715 20.4372 9.29395 19.1513 10.5799C17.8653 11.8659 17.1429 13.61 17.1429 15.4286C17.1429 17.2473 17.8653 18.9914 19.1513 20.2774C20.4372 21.5633 22.1814 22.2858 24 22.2858ZM37.0389 37.7144C36.1527 34.9527 34.4125 32.5437 32.0692 30.8346C29.7258 29.1256 26.9004 28.2047 24 28.2047C21.0996 28.2047 18.2742 29.1256 15.9308 30.8346C13.5875 32.5437 11.8473 34.9527 10.9612 37.7144H37.0389Z" stroke="#0D99FF" stroke-width="3.42857" stroke-linecap="round" stroke-linejoin="round"/>
</g>
<defs>
<clipPath id="clip0_12_111">
<rect width="48" height="48" fill="white"/>
</clipPath>
</defs>
</svg>
